<svg width="32" height="32" viewBox="0 0 32 32" fill="none" xmlns="http://www.w3.org/2000/svg">
<circle cx="16" cy="16" r="16" fill="url(#paint0_linear_101_177)"/>
<path d="M8 13.7036C8.36931 13.134 8.87541 12.6711 9.51829 12.3151C10.1748 11.9591 10.9203 11.781 11.7547 11.781C12.7258 11.781 13.6012 12.0303 14.3809 12.5287C15.1742 13.0271 15.7966 13.7392 16.248 14.6649C16.7131 15.5763 16.9456 16.6373 16.9456 17.8478C16.9456 19.0583 16.7131 20.1335 16.248 21.0734C15.7966 21.9991 15.1742 22.7183 14.3809 23.231C13.6012 23.7437 12.7258 24 11.7547 24C10.9066 24 10.1612 23.8291 9.51829 23.4873C8.88909 23.1313 8.38299 22.6756 8 22.1202V24H5V8H8V13.7036ZM14.0116 17.8478C14.0116 17.1357 13.868 16.5234 13.5807 16.0107C13.3072 15.4838 12.9379 15.085 12.4728 14.8144C12.0239 14.5445 11.5139 14.4044 10.9955 14.4085C10.4758 14.4085 9.98335 14.551 9.51829 14.8358C9.0669 15.1064 8.69759 15.5051 8.41035 16.032C8.13678 16.559 8 17.1785 8 17.8905C8 18.6026 8.13678 19.2221 8.41035 19.749C8.69759 20.2759 9.0669 20.6818 9.51829 20.9666C9.98335 21.2372 10.4758 21.3725 10.9955 21.3725C11.529 21.3725 12.0214 21.2301 12.4728 20.9453C12.9379 20.6604 13.3072 20.2546 13.5807 19.7276C13.868 19.2007 14.0116 18.5741 14.0116 17.8478ZM25.1276 24L21.0361 19V24H18V8H21.0361V16.9933L25.1276 11.9733H29.1276L23.5 18L29.1276 24H25.1276Z" fill="#2E2E2E"/>
<defs>
<linearGradient id="paint0_linear_101_177" x1="16" y1="0" x2="16" y2="32" gradientUnits="userSpaceOnUse">
<stop stop-color="#FFBF00"/>
<stop offset="1" stop-color="#F2A60C"/>
</linearGradient>
</defs>
</svg>
