<svg width="18" height="10" viewBox="0 0 18 10" fill="none" xmlns="http://www.w3.org/2000/svg">
<path fill-rule="evenodd" clip-rule="evenodd" d="M10.5978 0.418024C10.9192 -0.0310912 11.5438 -0.134604 11.993 0.186821L17.582 4.18682C17.8443 4.37459 18 4.67739 18 5.00002C18 5.32264 17.8443 5.62545 17.582 5.81321L11.993 9.81321C11.5438 10.1346 10.9192 10.0311 10.5978 9.58201C10.2763 9.13289 10.3799 8.50825 10.829 8.18682L13.8845 6.00002H1C0.447715 6.00002 0 5.5523 0 5.00002C0 4.44773 0.447715 4.00002 1 4.00002H13.8845L10.829 1.81321C10.3799 1.49178 10.2763 0.867139 10.5978 0.418024Z" fill="#332200"/>
</svg>
