<svg width="33" height="32" viewBox="0 0 33 32" fill="none" xmlns="http://www.w3.org/2000/svg">
<path d="M26.6044 13.3333C26.4695 13.5277 26.3896 13.7533 26.3728 13.9875C26.356 14.2216 26.4029 14.4559 26.5087 14.6667C26.8477 15.4387 27.087 16.2493 27.2196 17.08C27.5715 19.2269 27.2424 21.4273 26.2763 23.3867C26.1589 23.6016 25.9835 23.7811 25.769 23.9056C25.5545 24.0302 25.3091 24.0951 25.0595 24.0933H7.76523C7.51418 24.0938 7.26784 24.0269 7.05321 23.8999C6.83858 23.7729 6.66396 23.5907 6.54848 23.3733C5.67334 21.6419 5.29637 19.7113 5.45775 17.7874C5.61913 15.8635 6.31281 14.0183 7.46484 12.4487C8.61687 10.879 10.1841 9.64362 11.9994 8.87426C13.8147 8.1049 15.81 7.8304 17.7727 8.08C18.7657 8.19384 19.7371 8.44526 20.6573 8.82667C20.8735 8.92983 21.1137 8.97553 21.3537 8.95914C21.5938 8.94275 21.8252 8.86486 22.0245 8.73334C22.2321 8.59993 22.3985 8.41382 22.5058 8.19504C22.613 7.97626 22.657 7.73309 22.6331 7.49172C22.6092 7.25034 22.5183 7.01989 22.3701 6.82518C22.2219 6.63046 22.022 6.47886 21.792 6.38667C19.151 5.28221 16.2203 5.01745 13.4162 5.63C10.612 6.24255 8.07713 7.70126 6.1715 9.79891C4.26586 11.8966 3.08641 14.5265 2.80068 17.3152C2.51494 20.1038 3.13746 22.9094 4.5798 25.3333C4.81838 25.7364 5.16095 26.0715 5.57348 26.3054C5.986 26.5393 6.45411 26.6639 6.93127 26.6667H25.8661C26.3479 26.6685 26.8217 26.5462 27.2394 26.3121C27.6571 26.0779 28.004 25.7403 28.2449 25.3333C29.3009 23.5486 29.9183 21.5494 30.0488 19.4928C30.1792 17.4362 29.8192 15.3781 28.9969 13.48C28.8927 13.2637 28.7309 13.0786 28.5282 12.9442C28.3256 12.8098 28.0897 12.731 27.8451 12.716C27.6006 12.701 27.3564 12.7504 27.1381 12.859C26.9198 12.9676 26.7355 13.1314 26.6044 13.3333Z" fill="url(#paint0_linear_15_848)"/>
<path d="M14.4781 16.7867C13.965 17.287 13.6768 17.9657 13.6768 18.6733C13.6768 19.0237 13.7475 19.3707 13.885 19.6944C14.0225 20.0181 14.224 20.3122 14.4781 20.56C14.7321 20.8078 15.0337 21.0043 15.3656 21.1384C15.6975 21.2725 16.0533 21.3415 16.4126 21.3415C17.1381 21.3415 17.834 21.0604 18.347 20.56L26.085 9.23999L14.4781 16.7867Z" fill="url(#paint1_linear_15_848)"/>
<defs>
<linearGradient id="paint0_linear_15_848" x1="16.4039" y1="5.30762" x2="16.4039" y2="26.6667" gradientUnits="userSpaceOnUse">
<stop stop-color="#FFBF00"/>
<stop offset="1" stop-color="#F2A60C"/>
</linearGradient>
<linearGradient id="paint1_linear_15_848" x1="19.8809" y1="9.23999" x2="19.8809" y2="21.3415" gradientUnits="userSpaceOnUse">
<stop stop-color="#FFBF00"/>
<stop offset="1" stop-color="#F2A60C"/>
</linearGradient>
</defs>
</svg>
